<?xml version="1.0" encoding="UTF-8" standalone="no"?>
<svg
   xmlns:dc="http://purl.org/dc/elements/1.1/"
   xmlns:cc="http://creativecommons.org/ns#"
   xmlns:rdf="http://www.w3.org/1999/02/22-rdf-syntax-ns#"
   xmlns:svg="http://www.w3.org/2000/svg"
   xmlns="http://www.w3.org/2000/svg"
   xmlns:sodipodi="http://sodipodi.sourceforge.net/DTD/sodipodi-0.dtd"
   xmlns:inkscape="http://www.inkscape.org/namespaces/inkscape"
   viewBox="0 0 64 80"
   x="0px"
   y="0px"
   version="1.1"
   id="svg14"
   sodipodi:docname="noun_vaccine_2196600.svg"
   inkscape:version="1.0.2 (e86c870879, 2021-01-15, custom)"
   inkscape:export-filename="C:\sahil\dev\vaccinetracker\assets\nounProject\vaccine128.png"
   inkscape:export-xdpi="214.47517"
   inkscape:export-ydpi="214.47517">
  <metadata
     id="metadata20">
    <rdf:RDF>
      <cc:Work
         rdf:about="">
        <dc:format>image/svg+xml</dc:format>
        <dc:type
           rdf:resource="http://purl.org/dc/dcmitype/StillImage" />
      </cc:Work>
    </rdf:RDF>
  </metadata>
  <defs
     id="defs18" />
  <sodipodi:namedview
     pagecolor="#ffffff"
     bordercolor="#666666"
     borderopacity="1"
     objecttolerance="10"
     gridtolerance="10"
     guidetolerance="10"
     inkscape:pageopacity="0"
     inkscape:pageshadow="2"
     inkscape:window-width="1920"
     inkscape:window-height="1001"
     id="namedview16"
     showgrid="false"
     inkscape:zoom="7.3362329"
     inkscape:cx="21.53986"
     inkscape:cy="38.27641"
     inkscape:window-x="-9"
     inkscape:window-y="-9"
     inkscape:window-maximized="1"
     inkscape:current-layer="svg14"
     inkscape:document-rotation="0" />
  <g
     id="g835"
     transform="matrix(0.37190343,0,0,0.37190343,2.7724183,1.4400105)">
    <path
       d="M 45.414,17 H 47 v 1.586 l -2,2 L 43.414,19 Z M 10,59.586 4.414,54 6,52.414 11.586,58 Z m 2,-4 L 8.414,52 13,47.414 16.586,51 Z M 25.586,54 24,55.586 19.414,51 13,44.586 8.414,40 10,38.414 11.586,40 24,52.414 Z M 14.414,40 18,36.414 22.293,40.707 23.707,39.293 19.414,35 23,31.414 29.293,37.707 30.707,36.293 24.414,30 28,26.414 32.293,30.707 33.707,29.293 29.414,25 33,21.414 39.293,27.707 40.707,26.293 34.414,20 38,16.414 40.586,19 45,23.414 47.586,26 24,49.586 Z"
       id="path2"
       style="fill:#ff8080" />
    <path
       d="M 58.171,20 H 57.829 A 1.829,1.829 0 0 1 56.536,16.878 L 58,15.414 59.464,16.878 A 1.829,1.829 0 0 1 58.171,20 Z"
       id="path4"
       style="fill:#ff0000" />
    <rect
       x="22.627548"
       y="44.254856"
       width="18.385"
       height="2"
       transform="rotate(-45)"
       id="rect6"
       style="fill:#ff8080" />
  </g>
  <g
     id="g862"
     inkscape:export-xdpi="214.47517"
     inkscape:export-ydpi="214.47517">
    <path
       d="m 53.66204,7.7623688 h 0.589839 V 8.3522076 L 53.508072,9.0960145 52.918234,8.5061757 Z M 40.491452,23.600248 38.414,21.522796 l 0.589839,-0.589839 2.077452,2.077452 z m 0.743807,-1.487613 -1.333646,-1.333646 1.70555,-1.705549 1.333645,1.333645 z m 5.05268,-0.589839 -0.589839,0.589839 -1.705549,-1.70555 -2.385388,-2.385388 -1.70555,-1.705549 0.589839,-0.589839 0.589839,0.589839 4.616809,4.616809 z m -4.154905,-5.206648 1.333646,-1.333646 1.596581,1.596581 0.525872,-0.525871 -1.596582,-1.596581 1.333646,-1.333646 2.340388,2.340388 0.525872,-0.525871 -2.340389,-2.340389 1.333646,-1.333645 1.596581,1.596581 0.525872,-0.525871 -1.596582,-1.596582 1.333646,-1.3336454 2.340388,2.3403884 0.525872,-0.525872 -2.340388,-2.3403879 1.333645,-1.3336457 0.961743,0.9617423 1.641581,1.6415813 0.961743,0.961743 -8.771715,8.771714 z"
       id="path837"
       style="fill:#ffe762;stroke-width:0.371903;fill-opacity:1" />
    <path
       d="M 58.406412,8.8780791 H 58.279221 A 0.68021137,0.68021137 0 0 1 57.79835,7.7169966 L 58.342817,7.17253 58.887284,7.7169966 a 0.68021137,0.68021137 0 0 1 -0.480872,1.1610825 z"
       id="path839"
       style="fill:#f6ed00;stroke-width:0.371903;fill-opacity:1" />
    <rect
       x="33.399048"
       y="43.478802"
       width="6.8374448"
       height="0.74380684"
       transform="rotate(-45)"
       id="rect841"
       style="fill:#ffe762;stroke-width:0.371903;fill-opacity:1" />
  </g>
  <g
     id="g867"
     inkscape:export-xdpi="214.47517"
     inkscape:export-ydpi="214.47517">
    <path
       d="m 19.66204,33.762369 h 0.589839 v 0.589839 l -0.743807,0.743807 -0.589838,-0.589839 z M 6.4914523,49.600249 4.4139997,47.522796 5.0038386,46.932957 7.0812911,49.01041 Z M 7.2352592,48.112635 5.9016135,46.778989 7.6071626,45.07344 8.9408083,46.407086 Z M 12.287939,47.522796 11.6981,48.112635 9.9925512,46.407086 7.6071626,44.021697 5.9016135,42.316148 6.4914523,41.726309 7.0812911,42.316148 11.6981,46.932957 Z m -4.154905,-5.206648 1.3336457,-1.333645 1.5965813,1.596581 0.525872,-0.525872 -1.5965818,-1.596581 1.3336458,-1.333646 2.340388,2.340389 0.525872,-0.525872 -2.340389,-2.340388 1.333646,-1.333646 1.596581,1.596582 0.525872,-0.525872 -1.596582,-1.596581 1.333646,-1.333646 2.340388,2.340388 0.525872,-0.525871 -2.340388,-2.340388 1.333645,-1.333646 0.961743,0.961742 1.641581,1.641582 0.961743,0.961742 -8.771715,8.771714 z"
       id="path845"
       style="fill:#90ef90;stroke-width:0.371903;fill-opacity:1" />
    <path
       d="M 24.406412,34.87808 H 24.279221 A 0.68021137,0.68021137 0 0 1 23.79835,33.716997 l 0.544467,-0.544467 0.544467,0.544467 a 0.68021137,0.68021137 0 0 1 -0.480872,1.161083 z"
       id="path847"
       style="fill:#80ff80;stroke-width:0.371903;fill-opacity:1" />
    <rect
       x="-9.027359"
       y="37.821945"
       width="6.8374448"
       height="0.74380684"
       transform="rotate(-45)"
       id="rect849"
       style="fill:#90ef90;stroke-width:0.371903;fill-opacity:1" />
  </g>
</svg>
