<?xml version="1.0" encoding="UTF-8" standalone="no"?>
<svg
   xmlns:dc="http://purl.org/dc/elements/1.1/"
   xmlns:cc="http://creativecommons.org/ns#"
   xmlns:rdf="http://www.w3.org/1999/02/22-rdf-syntax-ns#"
   xmlns:svg="http://www.w3.org/2000/svg"
   xmlns="http://www.w3.org/2000/svg"
   xmlns:sodipodi="http://sodipodi.sourceforge.net/DTD/sodipodi-0.dtd"
   xmlns:inkscape="http://www.inkscape.org/namespaces/inkscape"
   viewBox="0 0 64 80"
   x="0px"
   y="0px"
   version="1.1"
   id="svg14"
   sodipodi:docname="noun_vaccine_2196600.svg"
   inkscape:version="1.0.2 (e86c870879, 2021-01-15, custom)"
   inkscape:export-filename="C:\sahil\dev\vaccinetracker\assets\nounProject\vaccine128.png"
   inkscape:export-xdpi="214.47517"
   inkscape:export-ydpi="214.47517">
  <metadata
     id="metadata20">
    <rdf:RDF>
      <cc:Work
         rdf:about="">
        <dc:format>image/svg+xml</dc:format>
        <dc:type
           rdf:resource="http://purl.org/dc/dcmitype/StillImage" />
      </cc:Work>
    </rdf:RDF>
  </metadata>
  <defs
     id="defs18" />
  <sodipodi:namedview
     pagecolor="#ffffff"
     bordercolor="#666666"
     borderopacity="1"
     objecttolerance="10"
     gridtolerance="10"
     guidetolerance="10"
     inkscape:pageopacity="0"
     inkscape:pageshadow="2"
     inkscape:window-width="1920"
     inkscape:window-height="1001"
     id="namedview16"
     showgrid="false"
     inkscape:zoom="10.375"
     inkscape:cx="32"
     inkscape:cy="32.289157"
     inkscape:window-x="-9"
     inkscape:window-y="-9"
     inkscape:window-maximized="1"
     inkscape:current-layer="svg14"
     inkscape:document-rotation="0" />
  <path
     d="M 45.414,17 H 47 v 1.586 l -2,2 L 43.414,19 Z M 10,59.586 4.414,54 6,52.414 11.586,58 Z m 2,-4 L 8.414,52 13,47.414 16.586,51 Z M 25.586,54 24,55.586 19.414,51 13,44.586 8.414,40 10,38.414 11.586,40 24,52.414 Z M 14.414,40 18,36.414 22.293,40.707 23.707,39.293 19.414,35 23,31.414 29.293,37.707 30.707,36.293 24.414,30 28,26.414 32.293,30.707 33.707,29.293 29.414,25 33,21.414 39.293,27.707 40.707,26.293 34.414,20 38,16.414 40.586,19 45,23.414 47.586,26 24,49.586 Z"
     id="path2"
     style="fill:#ff8080" />
  <path
     d="M 58.171,20 H 57.829 A 1.829,1.829 0 0 1 56.536,16.878 L 58,15.414 59.464,16.878 A 1.829,1.829 0 0 1 58.171,20 Z"
     id="path4"
     style="fill:#ff0000" />
  <rect
     x="22.627548"
     y="44.254856"
     width="18.385"
     height="2"
     transform="rotate(-45)"
     id="rect6"
     style="fill:#ff8080" />
</svg>
