<?xml version="1.0" encoding="UTF-8" standalone="no"?>
<svg
   xmlns:dc="http://purl.org/dc/elements/1.1/"
   xmlns:cc="http://creativecommons.org/ns#"
   xmlns:rdf="http://www.w3.org/1999/02/22-rdf-syntax-ns#"
   xmlns:svg="http://www.w3.org/2000/svg"
   xmlns="http://www.w3.org/2000/svg"
   xmlns:xlink="http://www.w3.org/1999/xlink"
   xmlns:sodipodi="http://sodipodi.sourceforge.net/DTD/sodipodi-0.dtd"
   xmlns:inkscape="http://www.inkscape.org/namespaces/inkscape"
   width="44.85268mm"
   height="45.098225mm"
   viewBox="0 0 44.85268 45.098225"
   version="1.1"
   id="svg2638"
   inkscape:version="1.0.2 (e86c870879, 2021-01-15, custom)"
   sodipodi:docname="mockUI3c.svg"
   inkscape:export-filename="C:\sahil\dev\vaccinetracker\assets\mockUI3c.png"
   inkscape:export-xdpi="214.47501"
   inkscape:export-ydpi="214.47501">
  <defs
     id="defs2632">
    <radialGradient
       inkscape:collect="always"
       xlink:href="#linearGradient2203"
       id="radialGradient2438"
       gradientUnits="userSpaceOnUse"
       gradientTransform="translate(58.208336,52.916669)"
       cx="152.09325"
       cy="118.25239"
       fx="152.09325"
       fy="118.25239"
       r="19.909897" />
    <linearGradient
       inkscape:collect="always"
       id="linearGradient2203">
      <stop
         style="stop-color:#0b89b6;stop-opacity:0.76923078"
         offset="0"
         id="stop2197" />
      <stop
         style="stop-color:#0a81ab;stop-opacity:1"
         offset="0.99802864"
         id="stop2199" />
      <stop
         style="stop-color:#0a81ab;stop-opacity:1"
         offset="1"
         id="stop2201" />
    </linearGradient>
  </defs>
  <sodipodi:namedview
     id="base"
     pagecolor="#ffffff"
     bordercolor="#666666"
     borderopacity="1.0"
     inkscape:pageopacity="0.0"
     inkscape:pageshadow="2"
     inkscape:zoom="0.35"
     inkscape:cx="-818.09618"
     inkscape:cy="242.36785"
     inkscape:document-units="mm"
     inkscape:current-layer="layer1"
     inkscape:document-rotation="0"
     showgrid="false"
     inkscape:window-width="1431"
     inkscape:window-height="1030"
     inkscape:window-x="96"
     inkscape:window-y="0"
     inkscape:window-maximized="0" />
  <metadata
     id="metadata2635">
    <rdf:RDF>
      <cc:Work
         rdf:about="">
        <dc:format>image/svg+xml</dc:format>
        <dc:type
           rdf:resource="http://purl.org/dc/dcmitype/StillImage" />
        <dc:title />
      </cc:Work>
    </rdf:RDF>
  </metadata>
  <g
     inkscape:label="Layer 1"
     inkscape:groupmode="layer"
     id="layer1"
     transform="translate(-107.59747,-84.040174)">
    <g
       id="g2630"
       transform="translate(-82.794224,-61.940551)">
      <rect
         style="opacity:0.993033;fill:url(#radialGradient2438);fill-opacity:1;stroke:#b3b3b3;stroke-width:0.132292;stroke-miterlimit:4;stroke-dasharray:none;stroke-opacity:1"
         id="rect2394"
         width="39.6875"
         height="39.6875"
         x="190.45784"
         y="151.3253" />
      <text
         xml:space="preserve"
         style="font-style:normal;font-variant:normal;font-weight:normal;font-stretch:normal;font-size:9.68071px;line-height:1.25;font-family:'Segoe UI';-inkscape-font-specification:'Segoe UI, Normal';font-variant-ligatures:normal;font-variant-caps:normal;font-variant-numeric:normal;font-variant-east-asian:normal;fill:#ffffff;stroke-width:0.242018"
         x="195.94977"
         y="163.52423"
         id="text2398"><tspan
           sodipodi:role="line"
           id="tspan2396"
           x="195.94977"
           y="163.52423"
           style="font-style:normal;font-variant:normal;font-weight:normal;font-stretch:normal;font-size:9.68071px;font-family:'Segoe UI';-inkscape-font-specification:'Segoe UI, Normal';font-variant-ligatures:normal;font-variant-caps:normal;font-variant-numeric:normal;font-variant-east-asian:normal;fill:#ffffff;stroke-width:0.242018">101</tspan></text>
      <text
         xml:space="preserve"
         style="font-size:9.68071px;line-height:1.25;font-family:'Segoe UI';-inkscape-font-specification:'Segoe UI, Normal';fill:#ffffff;stroke-width:0.242018"
         x="215.87122"
         y="163.58331"
         id="text2402"><tspan
           sodipodi:role="line"
           id="tspan2400"
           x="215.87122"
           y="163.58331"
           style="fill:#ffffff;stroke-width:0.242018">11</tspan></text>
      <text
         xml:space="preserve"
         style="font-size:9.68071px;line-height:1.25;font-family:'Segoe UI';-inkscape-font-specification:'Segoe UI, Normal';fill:#ffffff;stroke-width:0.242018"
         x="218.13541"
         y="180.71747"
         id="text2406"><tspan
           sodipodi:role="line"
           id="tspan2404"
           x="218.13541"
           y="180.71747"
           style="fill:#ffffff;stroke-width:0.242018">9</tspan></text>
      <text
         xml:space="preserve"
         style="font-size:9.68071px;line-height:1.25;font-family:'Segoe UI';-inkscape-font-specification:'Segoe UI, Normal';fill:#ffffff;stroke-width:0.242018"
         x="198.71028"
         y="180.73637"
         id="text2410"><tspan
           sodipodi:role="line"
           id="tspan2408"
           x="198.71028"
           y="180.73637"
           style="fill:#ffffff;stroke-width:0.242018">51</tspan></text>
      <rect
         style="opacity:0.993033;fill:#086180;fill-opacity:1;stroke:none;stroke-width:0.132292;stroke-miterlimit:4;stroke-dasharray:none;stroke-opacity:1"
         id="rect2412"
         width="5.0303092"
         height="39.6875"
         x="190.45784"
         y="151.3253" />
      <text
         xml:space="preserve"
         style="font-size:3.07296px;line-height:1.25;font-family:'Segoe UI';-inkscape-font-specification:'Segoe UI, Normal';fill:#ffffff;stroke:#ffffff;stroke-width:0.076824"
         x="-165.04301"
         y="194.05408"
         id="text2416"
         transform="rotate(-90)"><tspan
           sodipodi:role="line"
           id="tspan2414"
           x="-165.04301"
           y="194.05408"
           style="fill:#ffffff;stroke:#ffffff;stroke-width:0.076824">18-45</tspan></text>
      <text
         xml:space="preserve"
         style="font-size:3.07296px;line-height:1.25;font-family:'Segoe UI';-inkscape-font-specification:'Segoe UI, Normal';fill:#ffffff;stroke:#ffffff;stroke-width:0.076824"
         x="-179.33046"
         y="194.03008"
         id="text2420"
         transform="rotate(-90)"><tspan
           sodipodi:role="line"
           id="tspan2418"
           x="-179.33046"
           y="194.03008"
           style="fill:#ffffff;stroke:#ffffff;stroke-width:0.076824">45+</tspan></text>
      <rect
         style="opacity:0.993033;fill:#086181;fill-opacity:0.996078;stroke:none;stroke-width:0.132292;stroke-miterlimit:4;stroke-dasharray:none;stroke-opacity:1"
         id="rect2422"
         width="5.0303092"
         height="39.6875"
         x="185.9825"
         y="-230.14534"
         transform="rotate(90)" />
      <text
         xml:space="preserve"
         style="font-style:normal;font-variant:normal;font-weight:normal;font-stretch:normal;font-size:3.52778px;line-height:1.25;font-family:'Segoe UI';-inkscape-font-specification:'Segoe UI, Normal';font-variant-ligatures:normal;font-variant-caps:normal;font-variant-numeric:normal;font-variant-east-asian:normal;fill:#ffffff;stroke:#ffffff;stroke-width:0.076824"
         x="202.20992"
         y="189.73273"
         id="text2426"><tspan
           sodipodi:role="line"
           id="tspan2424"
           x="202.20992"
           y="189.73273"
           style="font-style:normal;font-variant:normal;font-weight:normal;font-stretch:normal;font-size:3.52778px;font-family:'Segoe UI';-inkscape-font-specification:'Segoe UI, Normal';font-variant-ligatures:normal;font-variant-caps:normal;font-variant-numeric:normal;font-variant-east-asian:normal;fill:#ffffff;stroke:#ffffff;stroke-width:0.076824">COVISHIELD</tspan></text>
      <path
         style="fill:#0a81ab;fill-opacity:0.996078;stroke:#0a81ab;stroke-width:0.264583px;stroke-linecap:butt;stroke-linejoin:miter;stroke-opacity:0.996078"
         d="M 212.32063,151.32531 V 185.9825"
         id="path2428" />
      <path
         style="fill:#0a81ab;fill-opacity:0.996078;stroke:#0a81ab;stroke-width:0.264583px;stroke-linecap:butt;stroke-linejoin:miter;stroke-opacity:0.996078"
         d="m 195.55429,168.6539 h 34.65719"
         id="path2430" />
      <circle
         style="opacity:0.993033;fill:#086180;fill-opacity:1;stroke:none;stroke-width:0.145043;stroke-miterlimit:4;stroke-dasharray:none;stroke-opacity:1"
         id="circle2432"
         cx="229.29762"
         cy="151.92747"
         r="5.9467497" />
      <path
         d="m 232.40895,151.55552 c 0,-0.0187 -0.006,-0.0374 -0.006,-0.0498 -0.006,-0.0374 -0.0187,-0.0685 -0.0311,-0.0996 -0.0124,-0.0374 -0.0311,-0.0685 -0.0498,-0.0996 -0.0187,-0.0373 -0.0436,-0.0685 -0.0685,-0.10579 -0.0124,-0.0187 -0.0311,-0.0374 -0.0498,-0.056 -0.0187,-0.0187 -0.0373,-0.0373 -0.0622,-0.056 -0.0498,-0.0374 -0.0933,-0.0747 -0.14936,-0.11202 -0.11825,-0.0685 -0.23027,-0.14315 -0.35474,-0.19916 -0.14936,-0.0685 -0.2925,-0.14313 -0.44809,-0.19915 l -1.03309,-0.36096 c 0,-0.19914 0.006,-0.39207 0,-0.59123 -0.006,-0.2925 -0.0249,-0.585 -0.0436,-0.8775 -0.0187,-0.20538 -0.0373,-0.40453 -0.0747,-0.6099 -0.0249,-0.15559 -0.0623,-0.31117 -0.0996,-0.46676 -0.006,-0.0374 -0.0187,-0.0685 -0.0311,-0.1058 -0.0187,-0.0622 -0.0436,-0.11824 -0.0747,-0.17425 -0.0249,-0.0436 -0.0498,-0.0871 -0.0809,-0.1307 -0.0373,-0.0498 -0.0809,-0.0933 -0.1307,-0.12447 -0.0249,-0.0187 -0.056,-0.0373 -0.0809,-0.0498 -0.0249,-0.0125 -0.0498,-0.0187 -0.0747,-0.0249 -0.0373,-0.0124 -0.0747,-0.0124 -0.11824,-0.0187 -0.0934,-0.006 -0.18048,0.006 -0.26761,0.0373 -0.0311,0.0124 -0.0623,0.0249 -0.0933,0.0436 -0.0685,0.0373 -0.13692,0.0809 -0.20538,0.12447 -0.056,0.0436 -0.11824,0.0871 -0.16803,0.13691 -0.21783,0.20538 -0.42942,0.41075 -0.64102,0.62235 -0.11202,0.11202 -0.21782,0.23027 -0.31739,0.35474 -0.39831,0.48543 -0.79661,0.97086 -1.18246,1.46873 -0.16803,0.21782 -0.32362,0.45431 -0.48543,0.68458 -0.0374,0.056 -0.0747,0.11824 -0.11202,0.18048 -0.056,0.1058 -0.11825,0.2116 -0.16803,0.32362 -0.0125,0.0311 -0.0249,0.056 -0.0374,0.0871 -0.0124,0.0311 -0.0187,0.056 -0.0249,0.0871 -0.0124,0.0498 -0.0187,0.10579 -0.0187,0.1618 0,0.0125 0.006,0.0249 0.006,0.0374 0.006,0.0124 0.0124,0.0249 0.0187,0.0373 0.0187,0.0249 0.0374,0.056 0.056,0.0747 0.0249,0.0249 0.0498,0.0498 0.0809,0.0747 0.0311,0.0249 0.056,0.0436 0.0871,0.0685 0.056,0.0374 0.11202,0.0684 0.16804,0.0996 0.0249,0.0124 0.0498,0.0249 0.0747,0.0373 0.006,0.006 -0.0187,-0.006 -0.0249,-0.0124 h 0.006 l 0.0436,0.0187 c 0.34229,0.18048 0.68458,0.35474 1.02687,0.53522 0.34229,0.18048 0.68458,0.36718 1.02065,0.55389 l 0.75926,0.42942 c -0.26139,0.19915 -0.53521,0.39208 -0.79038,0.59745 -0.0996,0.0809 -0.19293,0.16803 -0.28005,0.25516 -0.0747,0.0747 -0.14314,0.14936 -0.20538,0.23027 -0.0498,0.0622 -0.0996,0.13069 -0.14314,0.19915 -0.0374,0.056 -0.0623,0.11202 -0.0933,0.16803 -0.0187,0.0436 -0.0373,0.0871 -0.0498,0.13692 -0.0124,0.0311 -0.0187,0.0685 -0.0249,0.0996 -0.006,0.0187 -0.006,0.0436 -0.006,0.0622 v 0.0187 0.056 c 0.006,0.0622 0.0187,0.13069 0.0498,0.1867 0.006,0.0125 0.0124,0.0249 0.0249,0.0374 0.0187,0.0249 0.0373,0.0498 0.056,0.0685 0.0187,0.0187 0.0436,0.0374 0.0685,0.056 0.0249,0.0187 0.0498,0.0311 0.0747,0.0498 0.0249,0.0124 0.056,0.0249 0.0809,0.0373 0.0249,0.0125 0.056,0.0249 0.0871,0.0311 0.1058,0.0249 0.2116,0.0436 0.32362,0.0623 0.0498,0.006 0.1058,0.0124 0.16181,0.006 0.1867,-0.0125 0.36718,-0.0311 0.54766,-0.0623 0.2116,-0.0311 0.4232,-0.0809 0.6348,-0.12446 0.24894,-0.056 0.49787,-0.11203 0.74059,-0.17426 0.17426,-0.0436 0.34851,-0.0871 0.51654,-0.15558 0.1307,-0.056 0.26139,-0.1058 0.39208,-0.16182 0.0311,-0.0124 0.056,-0.0311 0.0809,-0.0436 0.0249,-0.0124 0.0498,-0.0311 0.0747,-0.0498 0.0187,-0.0124 0.0436,-0.0311 0.056,-0.0498 0.0124,-0.0125 0.0311,-0.0311 0.0436,-0.0498 0.0187,-0.0311 0.0374,-0.0622 0.0436,-0.0933 0.006,-0.0311 0.006,-0.0622 0,-0.0871 -0.006,-0.0311 -0.0187,-0.056 -0.0311,-0.0809 -0.0124,-0.0249 -0.0311,-0.0498 -0.0498,-0.0685 -0.0373,-0.0374 -0.0747,-0.0747 -0.11824,-0.0996 -0.0187,-0.0124 -0.0374,-0.0249 -0.056,-0.0373 -0.13692,-0.0809 -0.26762,-0.1618 -0.40453,-0.24271 l -0.57256,-0.33606 c 0.34851,-0.2365 0.69703,-0.46677 1.03932,-0.70326 0.14936,-0.0996 0.2925,-0.21159 0.42942,-0.32361 0.11825,-0.0996 0.23027,-0.19916 0.34229,-0.30495 0.056,-0.0498 0.0996,-0.10581 0.14936,-0.16182 0.0249,-0.0249 0.0436,-0.0498 0.0622,-0.0809 0.0187,-0.0249 0.0374,-0.0498 0.0498,-0.0747 0.0436,-0.0871 0.0871,-0.18048 0.12447,-0.26761 0.0124,-0.0374 0.0187,-0.0809 0.0311,-0.11825 0.006,-0.0187 0.006,-0.0373 0.006,-0.056 0,-0.0187 0,-0.0373 0,-0.056 0,-0.0124 -0.006,-0.0311 -0.006,-0.0498 z m -4.25684,-2.33381 c 0.19293,-0.19914 0.38585,-0.39829 0.585,-0.59745 0.0374,-0.0373 0.0747,-0.0684 0.11202,-0.0996 0.0125,-0.0124 0.0249,-0.0249 0.0436,-0.0311 0.0124,-0.006 0.0187,-0.0187 0.0311,-0.0249 0.006,-0.006 0.0187,-0.0124 0.0249,-0.0124 0.0124,-0.006 0.0187,-0.006 0.0311,-0.0124 h 0.0311 c 0.0124,0 0.0249,0.006 0.0311,0.0124 0.0125,0.006 0.0249,0.0187 0.0311,0.0249 0.006,0.006 0.0124,0.0125 0.0124,0.0187 0.006,0.006 0.0124,0.0187 0.0124,0.0249 0.0124,0.0249 0.0187,0.0498 0.0249,0.0747 0.006,0.0373 0.0187,0.0747 0.0249,0.11202 0.0124,0.0934 0.0249,0.18048 0.0374,0.27384 0.0124,0.11824 0.0249,0.23649 0.0311,0.35473 l 0.056,0.62857 -0.70325,-0.16181 -0.65346,-0.1058 -0.15558,-0.0124 h -0.0498 c 0.14936,-0.15558 0.29251,-0.31117 0.44186,-0.46676 z m -0.44186,0.87752 0.006,-0.006 h 0.006 0.006 l 0.0249,0.006 0.0622,0.0249 0.0871,0.0374 c 0.22404,0.0934 0.44809,0.19292 0.67214,0.28628 0.14936,0.0622 0.29872,0.12447 0.44186,0.1867 l 0.29251,0.12447 0.0249,0.0124 c 0.0187,0.23027 0.0373,0.46054 0.0498,0.69081 0.0125,0.18048 0.0125,0.36096 0.0187,0.54144 v 0.0685 c 0,0.0124 0,0.0249 -0.006,0.0374 0,0.0124 -0.006,0.0249 -0.006,0.0373 -0.006,0.0124 -0.006,0.0249 -0.0125,0.0373 -0.006,0.0124 -0.0124,0.0187 -0.0187,0.0311 -0.006,0.006 -0.006,0.006 -0.0124,0.0124 -0.006,0.006 -0.0125,0.006 -0.0187,0.0125 -0.0124,0.006 -0.0249,0.0124 -0.0436,0.0124 -0.0187,0.006 -0.0373,0.006 -0.056,0 -0.0124,0 -0.0187,-0.006 -0.0311,-0.006 -0.0124,0 -0.0249,-0.006 -0.0311,-0.0124 -0.0249,-0.0125 -0.0436,-0.0187 -0.0685,-0.0311 -0.0249,-0.0124 -0.0498,-0.0311 -0.0685,-0.0436 -0.0249,-0.0187 -0.0498,-0.0373 -0.0747,-0.056 -0.0249,-0.0249 -0.0498,-0.0436 -0.0747,-0.0684 -0.0498,-0.056 -0.0996,-0.11203 -0.14936,-0.16804 -0.0871,-0.1058 -0.17426,-0.20537 -0.24894,-0.31739 -0.0996,-0.1556 -0.20537,-0.30495 -0.30494,-0.46055 -0.0623,-0.0933 -0.11825,-0.1867 -0.16804,-0.28627 l -0.22404,-0.44809 -0.0498,-0.14314 -0.0124,-0.0436 -0.006,-0.0436 v -0.0311 z m 2.48938,3.95811 c 0.0622,0.0373 0.12447,0.0747 0.18048,0.11824 0.0747,0.0498 0.15558,0.0996 0.23026,0.15559 0.056,0.0374 0.1058,0.0809 0.15559,0.12447 0.0249,0.0187 0.0436,0.0374 0.0622,0.0623 0.0187,0.0187 0.0311,0.0373 0.0436,0.056 v 0.006 0.0124 c 0,0 0,0.006 -0.006,0.006 0,0 -0.006,0.006 -0.006,0.006 -0.006,0 -0.006,0 -0.0124,0.006 -0.006,0 -0.0124,0 -0.0187,0 -0.29873,0.0249 -0.59123,0.0436 -0.88995,0.0685 l -1.15757,0.0934 h -0.0373 l 0.0187,-0.0187 0.0747,-0.0622 c 0.14936,-0.11202 0.2925,-0.23027 0.44808,-0.33606 l 0.65347,-0.44187 z m 0.88995,-2.27778 c -0.006,0.0249 -0.0187,0.0436 -0.0311,0.0622 -0.0187,0.0249 -0.0436,0.0436 -0.0623,0.0685 -0.0498,0.0436 -0.0933,0.0871 -0.14937,0.12447 -0.1867,0.13069 -0.36718,0.26139 -0.55388,0.39208 -0.13069,0.0871 -0.26139,0.16803 -0.39208,0.25516 l -0.75926,0.48543 -0.32362,-0.1867 -1.37538,-0.78416 c -0.31117,-0.1867 -0.62235,-0.36718 -0.93352,-0.56011 -0.056,-0.0374 -0.11202,-0.0747 -0.16803,-0.11824 -0.0187,-0.0124 -0.0311,-0.0249 -0.0498,-0.0373 -0.006,-0.006 -0.0124,-0.006 -0.0187,-0.0124 -0.0124,-0.0124 -0.0249,-0.0249 -0.0373,-0.0311 -0.0125,-0.0124 -0.0249,-0.0311 -0.0311,-0.0498 -0.006,-0.0124 -0.006,-0.0187 -0.006,-0.0311 0,-0.0124 0,-0.0249 0,-0.0311 0.006,-0.0249 0.0125,-0.0498 0.0249,-0.0685 0.0311,-0.0498 0.0623,-0.0996 0.1058,-0.13691 0.18048,-0.18048 0.36096,-0.36096 0.53521,-0.54767 l 0.47921,-0.49165 0.0249,0.0809 0.056,0.13692 0.006,0.006 c 0.12447,0.21781 0.24893,0.44808 0.37963,0.65968 0.15558,0.24894 0.32361,0.49165 0.49165,0.72814 0.0809,0.11203 0.16181,0.22405 0.24894,0.32984 0.0747,0.0934 0.15558,0.18671 0.23649,0.26762 0.0747,0.0747 0.15559,0.14313 0.23649,0.21159 0.0436,0.0311 0.0871,0.056 0.13069,0.0871 0.0436,0.0249 0.0871,0.0436 0.13069,0.056 0.0436,0.0124 0.0871,0.0249 0.1307,0.0249 0.0498,0.006 0.10579,0 0.15558,-0.0124 0.0124,-0.006 0.0311,-0.006 0.0436,-0.0124 0.0124,-0.006 0.0249,-0.0124 0.0374,-0.0187 0.0124,-0.006 0.0249,-0.0124 0.0373,-0.0249 0.0187,-0.0124 0.0374,-0.0311 0.056,-0.0498 0.0124,-0.0124 0.0311,-0.0311 0.0436,-0.0498 0.0187,-0.0187 0.0311,-0.0436 0.0436,-0.0685 0.0373,-0.0622 0.0684,-0.12447 0.0871,-0.19293 0.0249,-0.0747 0.0498,-0.14936 0.0622,-0.22404 0.0249,-0.0996 0.0498,-0.20538 0.0623,-0.30495 l 0.0622,-0.59745 c 0.14315,0.0685 0.28628,0.12447 0.42942,0.19915 0.13692,0.0685 0.26762,0.15559 0.39831,0.23027 0.0124,0.006 0.0311,0.0187 0.0436,0.0311 0.0187,0.0187 0.0374,0.0311 0.056,0.0498 0.0187,0.0187 0.0311,0.0436 0.0436,0.0685 0.006,0.0124 0.006,0.0249 0.0124,0.0373 v 0.0187 c 0.006,0.0187 0.006,0.0249 0,0.0311 z"
         fill="#eac102"
         id="path2434"
         style="clip-rule:evenodd;fill:#ffffff;fill-rule:evenodd;stroke-width:0.0622345" />
    </g>
  </g>
</svg>
